<svg xmlns="http://www.w3.org/2000/svg" width="330" height="347" viewBox="0 0 330 347"><path d="M32.063 39.955h-15.49l-3.82 11.16h-9.87L21.038.36h7.278l18.157 50.754H36.098l-4.035-11.159zm-12.97-7.919h10.809l-3.747-11.23-1.513-7.92h-.36l-1.513 7.992-3.675 11.158zm209.745-19.581c0 1.247-.156 2.495-.468 3.743a10.276 10.276 0 0 1-1.549 3.42c-.72 1.032-1.657 1.944-2.81 2.735-1.153.792-2.546 1.38-4.18 1.764v.432c1.442.24 2.81.648 4.108 1.224a10.535 10.535 0 0 1 3.386 2.376c.961 1.008 1.718 2.231 2.27 3.671s.829 3.144.829 5.112c0 2.591-.553 4.835-1.658 6.731a13.666 13.666 0 0 1-4.43 4.643c-1.85 1.2-3.952 2.088-6.305 2.664a30.51 30.51 0 0 1-7.278.864h-3.134c-1.273 0-2.642-.036-4.107-.108a97.87 97.87 0 0 1-4.467-.324 31.993 31.993 0 0 1-4.143-.648V1.08a92.161 92.161 0 0 1 3.134-.432 75.484 75.484 0 0 1 3.783-.36c1.345-.096 2.726-.168 4.143-.216A124.5 124.5 0 0 1 210.177 0c2.354 0 4.647.18 6.88.54 2.234.36 4.228.996 5.981 1.908a10.95 10.95 0 0 1 4.215 3.815c1.057 1.632 1.585 3.696 1.585 6.192zm-18.013 31.244c1.201 0 2.366-.144 3.495-.432 1.129-.288 2.125-.732 2.99-1.332a6.996 6.996 0 0 0 2.09-2.268c.528-.911.792-1.991.792-3.24 0-1.583-.312-2.83-.937-3.743a6.362 6.362 0 0 0-2.45-2.124c-1.008-.503-2.137-.827-3.386-.971a32.688 32.688 0 0 0-3.747-.216h-5.26v13.894c.24.096.625.168 1.154.216a33.6 33.6 0 0 0 1.693.108l1.873.072c.649.024 1.213.036 1.693.036zm-3.242-21.814c.672 0 1.453-.024 2.342-.072.888-.048 1.62-.12 2.197-.215 1.826-.576 3.399-1.44 4.72-2.592 1.32-1.152 1.981-2.664 1.981-4.536 0-1.248-.24-2.28-.72-3.095a5.487 5.487 0 0 0-1.91-1.944c-.792-.48-1.693-.816-2.702-1.008a16.931 16.931 0 0 0-3.17-.288 76.63 76.63 0 0 0-3.459.072c-1.056.048-1.873.12-2.45.216v13.462h3.171zM98.712 125.554c0-8.4 1.85-14.867 5.548-19.402 3.699-4.536 8.982-6.803 15.851-6.803 3.603 0 6.75.623 9.44 1.871 2.69 1.248 4.923 3.024 6.7 5.328 1.777 2.303 3.098 5.063 3.963 8.279.865 3.215 1.297 6.791 1.297 10.727 0 8.399-1.861 14.866-5.584 19.401-3.723 4.536-8.995 6.804-15.816 6.804-3.65 0-6.82-.624-9.51-1.872-2.69-1.248-4.912-3.024-6.665-5.328-1.754-2.303-3.063-5.063-3.927-8.279-.865-3.215-1.297-6.79-1.297-10.726zm10.375 0c0 2.543.216 4.883.649 7.019.432 2.135 1.093 3.971 1.981 5.507.889 1.536 2.03 2.736 3.423 3.6 1.393.864 3.05 1.296 4.971 1.296 3.507 0 6.22-1.368 8.142-4.104 1.922-2.736 2.882-7.175 2.882-13.318 0-2.448-.204-4.728-.612-6.84-.408-2.111-1.045-3.96-1.91-5.543-.864-1.584-1.993-2.82-3.386-3.708-1.393-.888-3.098-1.331-5.116-1.331-3.506 0-6.22 1.403-8.142 4.211-1.921 2.808-2.882 7.211-2.882 13.21zm211.042-24.766h9.367v32.54c0 3.264-.433 6.072-1.297 8.424-.865 2.351-2.066 4.295-3.603 5.831-1.537 1.536-3.41 2.664-5.62 3.384-2.21.72-4.635 1.08-7.277 1.08-12.778 0-19.166-5.832-19.166-17.495v-33.764h9.87v31.82c0 1.968.181 3.636.541 5.004.36 1.368.925 2.472 1.694 3.312.768.84 1.729 1.44 2.882 1.8 1.152.36 2.497.54 4.035.54 3.026 0 5.211-.84 6.556-2.52 1.345-1.68 2.018-4.392 2.018-8.135v-31.82zM39.34 207.48H24.643v41.611H14.77v-41.61H0v-8.784h39.34zm188.562 15.478l1.08-10.007h-.432l-3.098 8.064-10.736 18.79h-3.17l-11.312-18.862-3.17-7.992h-.36l1.44 9.935v26.205h-9.367v-50.394h9.007l13.474 23.037 2.377 5.76h.289l2.161-5.904 12.753-22.893h8.935v50.394h-9.871zm-122.705 73.648h29.901v8.783h-20.03v11.734h18.229v8.783h-18.23v12.311h20.392V347h-30.262z" fill="#D6988D" fill-rule="evenodd"/></svg>