<svg xmlns="http://www.w3.org/2000/svg" width="610" height="337" viewBox="0 0 610 337"><g fill="none" fill-rule="evenodd"><path fill="#899AA7" d="M376.21 333.94c-25.611 0-118.51 3.379-147.954-3.372-29.445-6.751-53.605-21.608-51.074-51.02 3.472-40.336 54.086-50.855 88.076-55.38 30.568-4.07 122.137 3.29 150.085 9.903 27.948 6.612 55.891 22.345 55.891 45.477 0 15.173-4.783 26.195-12.837 34.172-1.429 1.415-.4 5.39 4.638 10.286s15.014 10.61 12.592 11.921c-1.951 1.057-12.592 1.762-21.712 0-9.121-1.762-17.29-9.318-19.522-8.604-16.755 5.36-37.446 6.618-58.182 6.618z" style="mix-blend-mode:multiply"/><text fill="#FFF" font-family="Sandman_Fill" font-size="20" font-weight="400" letter-spacing=".833" transform="translate(156 223)"><tspan x="63.95" y="52">...you know, when I needed </tspan> <tspan x="119.12" y="72">it, I forgot</tspan></text><path fill="#E7E1D8" d="M155.095 127.884c27.487 0 61.266 4.07 92.866-4.065 31.6-8.134 57.53-26.035 54.813-61.474-3.726-48.602-45.574-54.797-81.56-60.807-17.862-2.983-78.123-1.957-108.116 6.01-29.994 7.968-59.983 26.925-59.983 54.797 0 18.282 5.133 31.563 13.777 41.175 1.533 1.704.429 6.493-4.978 12.393S45.8 128.696 48.4 130.277c2.094 1.273 13.514 2.123 23.302 0 9.789-2.123 18.556-11.227 20.951-10.367 17.982 6.459 40.187 7.974 62.442 7.974z"/><text fill="#4A4A4A" font-family="Sandman_Fill" font-size="20" font-weight="400" letter-spacing="3" transform="translate(48)"><tspan x="77.96" y="46">Did you try </tspan> <tspan x="54.49" y="66">what the health </tspan> <tspan x="72.13" y="86">tips suggest</tspan> <tspan x="189.07" y="86">?</tspan></text><path fill="#E7E1D8" d="M127.845 234.96c33.428-6.338 62.61-20.346 57.983-47.903-3.81-22.693-25.789-32.088-63.857-36.771-18.895-2.324-43.007-1.85-74.735 4.36-31.728 6.209-41.826 19.627-41.826 32.41 0 14.247 5.43 24.596 14.575 32.086 1.621 1.328.453 5.06-5.266 9.657-5.72 4.598-17.045 9.962-14.296 11.194 2.215.992 14.296 1.654 24.65 0 10.355-1.655 19.629-8.75 22.163-8.079 19.021 5.033 47.181 9.385 80.61 3.046z"/><text fill="#4A4A4A" font-family="Sandman_Fill" font-size="20" font-weight="400" letter-spacing="3" transform="translate(0 149)"><tspan x="22" y="47">So did it help</tspan> <tspan x="155.44" y="47">?</tspan></text><g><path fill="#899AA7" d="M358.341 211.314c-31.466-10.564-57.284-33.81-54.58-79.832 3.71-63.115 60.875-62.64 99.065-65.221 34.754-2.348 125.58 3.715 155.446 14.062s51.653 20.494 51.653 56.689c0 53.487-35.814 50.08-44.421 62.561-1.527 2.214-.427 8.433 4.957 16.094 5.384 7.662 16.044 16.601 13.456 18.654-2.085 1.654-13.456 2.757-23.203 0s-27.365-19.77-29.75-18.654c-17.905 8.388-141.157 6.21-172.623-4.353z" style="mix-blend-mode:multiply"/><text fill="#FFF" font-family="Sandman_Fill" font-size="20" font-weight="400" letter-spacing=".833" transform="translate(312 65)"><tspan x="47.027" y="57">It was too long for me to </tspan> <tspan x="39.343" y="77">read</tspan> <tspan x="48.298" y="71.621" font-family="LucidaGrande-Bold, Lucida Grande" font-weight="bold">…</tspan> <tspan x="90.85" y="77"> I thought it might be </tspan> <tspan x="48.8" y="97">helpful so I bookmarked it.</tspan></text></g></g></svg>