<svg xmlns="http://www.w3.org/2000/svg" xmlns:xlink="http://www.w3.org/1999/xlink" width="691" height="266" viewBox="0 0 691 266"><defs><path id="a" d="M84.524.423l46.794 2.65c42.04 2.381 74.189 38.391 71.808 80.43a76.241 76.241 0 0 1-1.855 12.939l-6.12 26.346c-8.418 36.245-40.715 61.9-77.925 61.9H80c-44.183 0-80-35.817-80-80V80.295c0-44.182 35.817-80 80-80a80 80 0 0 1 4.524.128z"/><path id="c" d="M83.789-.064l35.878 1.884c42.494 2.23 75.807 37.336 75.807 79.89v28.732c0 44.182-35.818 80-80 80H83.092c-40.67 0-74.869-30.516-79.483-70.924L.113 88.903C-4.9 45.006 26.623 5.356 70.52.343a80 80 0 0 1 13.269-.407z"/></defs><g fill="none" fill-rule="evenodd"><g transform="translate(0 5)"><mask id="b" fill="#fff"><use xlink:href="#a"/></mask><use fill="#E7E1D8" xlink:href="#a"/><g mask="url(#b)"><path fill="#E0684B" d="M43.313 129.508l18.102-.608-.749-19.427-17.82 1.787z" opacity=".8"/><path fill="#687051" d="M84.44 122.295l-23.375-.26c-.574 4.183-4.653 5.705-8.943 6.136-4.296.43-7.516-.419-8.91-4.406l-20.315.964 6.156 61.24h57.23l-1.843-63.674z" opacity=".8"/><path fill="#FFF" d="M85.47 182.182l10.585-1.324s1.57-57.904-11.615-58.563c-9.398-.469 1.03 59.887 1.03 59.887" opacity=".8"/><path fill="#E0684B" d="M63.519 91.28c-.436 12.746-.836 28.365-12.167 29.758-4.039.496-7.225-.389-9.704-2.297-.983-.76-2.86-1.687-4.637-6.383-1.71-4.522-2.259-5.5-3-11.603-1.514-12.19-6.537-32.964 10.636-35.08 17.919-2.216 19.273 13.32 18.872 25.604" opacity=".8"/><path fill="#3D3544" d="M32.225 85.527c-.072 2.482-.276 3.74 1.748 3.319 2.448-.51 8.016-.867 9.272-2.13.578-.58 4.92-3.694 5.646-4.059-.841 4.564 4.681 2.218 7.108 2.445.994.094 1.236 1.853 1.393 3.415.124 1.232-5.774 26.99 1.26 26.15 25.49-2.42 8.43-52.318-9.443-50.526-23.346 2.34-19.497 21.425-18.298 21.779.28 1.877-.118 29.413 7.552 29.5" opacity=".8"/><path fill="#687051" d="M22.897 124.738c-10.071 2.598-6.563 43.425-4.537 61.23h12.562c-.022-19.424-.864-63.076-8.025-61.23z" opacity=".8"/><path fill="#E0684B" d="M117.264 100.144h-15.672l1.094-14.612h13.485z" opacity=".8"/><path fill="#3D3544" d="M129.21 166.517s-14.918 4.257-15.067 8.062a472.79 472.79 0 0 0-.29 11.39h15.358v-19.452z" opacity=".8"/><path fill="#FFF" d="M116.536 90.4c-.893 3.694-1.769 4.114-5.65 4.114-3.881 0-7.67-.998-8.56-4.693 0 0-13.26-1.667-13.905 1.743-4.145 21.872 1.804 79.247 1.804 79.247h39.233s7.922-62.85.99-79.703c-.814-1.978-13.912-.708-13.912-.708"/><path fill="#3D3544" d="M90.092 170.765h39.233v15.158H90.092z" opacity=".8"/><path fill="#EEAB2F" d="M110.523 102.397c-7.837 0-9.687-12.731-9.687-12.731-18.705-3.382-13.58 4.356-14.787 25.294l2.415 65.389h22.06v-77.952zm22.493 8.467c7.87 12.426 14.98 24.853 14.98 24.853-2.71 9.48-22.973 23.214-22.973 23.214l4.436 9.695s31.697-23.044 31.702-30.725c.004-7.789-18.176-37.55-23.02-43.678-2.058-2.604-6.39-5.172-11.828-4.573" opacity=".8"/><path fill="#E0684B" d="M106.308 164.44l-4.442-2.141.547 2.352-.814-1.658 2.384-.696-.453-1.469-4.703.033-.085-.113-.113.155-.137.03.026.124-3.047-2.09-3.238 7.075 1.876 1.122 8.214 1.918z" opacity=".8"/><path fill="#EEAB2F" d="M108.539 102.397c7.837 0 9.13-12.173 9.13-12.173 18.522-3.394 15.16 3.547 15.343 24.736l-2.415 65.389H108.54v-77.952z" opacity=".8"/><path fill="#EEAB2F" d="M95.514 172.24l-2.842-1.641 9.311-16.075s2.513.89 2.842 1.64c8.5 19.338-9.311 16.077-9.311 16.077m-7.985-61.377c-7.87 12.426-14.98 24.853-14.98 24.853 2.708 9.48 22.973 23.214 22.973 23.214l-4.435 9.695s-31.699-23.044-31.703-30.725c-.004-7.789 18.175-37.55 23.019-43.678 2.06-2.604 6.39-5.172 11.826-4.573" opacity=".8"/><path fill="#E0684B" d="M114.211 164.44l4.443-2.141-.548 2.352.815-1.658-2.385-.696.453-1.469 4.703.033.085-.113.114.155.136.03-.025.124 3.047-2.09 3.237 7.075-1.876 1.122-8.214 1.918z" opacity=".8"/><path fill="#EEAB2F" d="M125.006 172.24l2.842-1.641-9.312-16.075s-2.513.89-2.842 1.64c-8.5 19.338 9.312 16.077 9.312 16.077m-34.914-55.862h12.171v1.502h-12.17zm25.435 0h12.17v1.502h-12.17z" opacity=".8"/><path fill="#E0684B" d="M120.72 68.11c-.522 9.589-1.058 21.342-9.61 22.218-3.05.313-5.434-.403-7.272-1.876-.729-.587-2.128-1.314-3.393-4.876-1.218-3.43-1.618-4.175-2.084-8.781-.95-9.201-4.418-24.916 8.543-26.248C120.43 47.15 121.21 58.869 120.72 68.11" opacity=".8"/><path fill="#3D3544" d="M97.355 65.801c2.216.856 1.733-4.745 1.733-5.896 0-1.322.615-4.754-.457-5.674-1.874 1.09-3.145 11.824-1.094 11.753m22.98-.183c-2.216.856-1.733-4.745-1.733-5.896 0-1.322-.615-4.754.457-5.674 1.874 1.09 3.145 11.824 1.094 11.753" opacity=".8"/><path fill="#E0684B" d="M180.567 129.866l-16.852-2.599 3.032-19.55 16.851 2.606z" opacity=".8"/><path fill="#EEAB2F" d="M185.177 133.35c-19.24-40.373-37.538 6.407-37.538 6.407l1.097 46.212h39.076c1.674-17.64 2.65-41.533-2.635-52.62z" opacity=".8"/><path fill="#E0684B" d="M143.607 181.24l-14.755-7.524s26.598-42.688 35.735-49.264c3.36-2.432 11.594 2.63 12.875 6.561 3.207 9.911-33.855 50.226-33.855 50.226" opacity=".8"/><path fill="#E0684B" d="M136.14 165.633c-3.727.348-8.538 6.328-6.26 9.599 1.793 2.577 6.276 6.486 11.732 10.737h19.832c-9.774-10.475-20.651-20.768-25.304-20.336zm50.8-78.074c5.458 9.677 11.609 28.048 2.199 31.23-7.239 2.45-19.48-4.231-22.808-8.425-6.642-8.387-15.48-21.835-3.675-31.182 12.317-9.742 19.015-.939 24.285 8.377" opacity=".8"/><path fill="#FFF" d="M179.683 68.1l-4.237 2.981s-18.59 2.243-21.567 14.21c-1.737 6.974 12.452 25.072 12.452 25.072l2.059-17.386 4.023 2.736" opacity=".8"/><path fill="#E0684B" d="M148.318 140.541l-22.665 1.158 2.708-17.843 16.476.309z" opacity=".8"/><path fill="#687051" d="M165.933 132.969l-19.617-.025c-.985 4.08-9.71 6.937-9.71 6.937s-8.64-2.787-9.63-6.868l-19.848-1.109 2.637 54.064h57.54l-1.372-53z" opacity=".8"/><path fill="#FFF" d="M107.129 131.904c-11.874.792-9.037 45.749-8.41 54.064h14.044c.568-9.935 2.664-54.616-5.634-54.064z"/><path fill="#E0684B" d="M91.463 138.61l-18.102.154.297-18.854H90.69z" opacity=".8"/><path fill="#E0684B" d="M96.827 103.096c-1.624 12.02-3.49 26.764-14.344 27.007-3.87.087-6.8-1.053-8.965-3.093-.859-.813-2.545-1.868-3.782-6.481-1.187-4.441-1.613-5.418-1.735-11.266-.273-11.68-3.05-31.814 13.402-32.189 17.17-.396 16.973 14.436 15.424 26.022" opacity=".8"/><path fill="#3D3544" d="M67.761 94.685c1.967 0 4.046.19 6.002-.017 2.364-.25 10.086-1.412 11.395-2.488.601-.495 1.085-1.45 1.808-1.726.591 2.32 1.663 3.93 3.938 4.377.93.183 4.723-.132 5.513-.013.324 1.275.594 2.4.594 3.894 0 1.177-.191 2.618-.105 3.784 1.849-2.285 1.608-8 1.6-10.832-.013-5.014-.202-10.496-4.469-13.653-2.602-1.923-4.982-1.954-8.169-1.954-2.742 0-5.392-.025-8.088.348-1.868.26-3.495.525-5.09 1.514-1.61.997-2.802 2.774-3.981 4.264-1.458 1.842-1.865 3.903-2.213 6.2-.173 1.125-1.117 6.1-.016 6.549.086 1.803.331 4.983 1.44 6.483-.032-2.143.074-4.77.074-6.96" opacity=".8"/><path fill="#3D3544" d="M82.405 77.068c0-4.637 3.762-8.395 8.407-8.395 4.642 0 8.403 3.758 8.403 8.395 0 4.635-3.761 8.393-8.403 8.393-4.645 0-8.407-3.758-8.407-8.393m26.698 107.788l2.657-54.495-20.555 1.04c-.99 4.08-8.923 6.936-8.923 6.936s-7.729-2.907-8.714-6.988l-20.613.076-1.412 54.543h57.614l-.054-1.112z" opacity=".8"/><path fill="#E0684B" d="M55.05 180.809c-.864-3.074-13.1-5.206-12.63-2.044.163 1.096.415 3.706.717 7.204h12.694c-.16-2.08-.412-3.843-.78-5.16zm76.2-108.608c-17.952 1.902-12.819 24.6-11.466 37.353 1.775 14.189 12.065 20.933 16.288 20.485 11.846-1.253 15.013-17.132 15.69-30.42.644-12.805-1.772-29.407-20.512-27.418" opacity=".8"/><path fill="#3D3544" d="M117.041 90.215c-.284-4.943.708-20.332 18.695-19.725 18.602.27 16.607 32.563 15.904 31.18-.746-1.457-.608-8.34-1.637-8.456-2.533-.281-8.9-.191-7.94-4.944-.764.371-9.166 4.101-9.946 4.43-2.576 1.08-5.873 1.759-9.285 2.408-.931.177-2.189-.247-3.29-.996-.461-.315-.315 8.273-.687 7.868-.763-.834-1.86-10.79-1.814-11.765m-64.085 41.21c-12.395.826-10.55 49.418-10.322 54.543h13.947c.744-7.734 4.949-55.114-3.625-54.543z" opacity=".8"/><path fill="#3D3544" d="M120.065 185.741s4.78-54.508-8.305-55.38c-8.877-.592-5.86 50.581-5.542 55.607h8.82l5.027-.227z"/><path fill="#687051" d="M165.933 132.969c-8.121-.541-4.778 41.939-3.77 53h14.152c.349-9.752 1.199-52.228-10.382-53z" opacity=".8"/></g></g><text fill="#4A4A4A" font-family="Sandman_Fill" font-size="16" font-weight="400" letter-spacing="1.6" transform="translate(0 5)"><tspan x="29" y="259">Intervew + surve</tspan> <tspan x="143.688" y="259">y</tspan></text><text fill="#4A4A4A" font-family="Sandman_Fill" font-size="24" font-weight="400" letter-spacing="3" transform="translate(0 5)"><tspan x="55" y="233">User</tspan> <tspan x="99.208" y="233">s</tspan></text><g transform="translate(249 1)"><mask id="d" fill="#fff"><use xlink:href="#c"/></mask><use fill="#E7E1D8" xlink:href="#c"/><g mask="url(#d)"><path fill="#E0684B" d="M146.77 176.95c-.485.805-5.602-28.585-9.693-37.23-1.782-2.793-9.692 15.689-9.692 16.187l4.846 24.28c.867 2.904 1.94 6.88 3.23 11.331H150l-3.23-12.95c-.406-.228 0-1.618 0-1.618zm-98.54 0c.485.805 5.698-25.415 9.79-34.06 1.782-2.793 11.21 10.9 11.21 11.398l-6.46 25.9c-.868 2.903-1.94 6.879-3.232 11.33H45l3.23-12.95c.406-.228 0-1.618 0-1.618zm40.738-34.927h21.64v-28.751H92.262z" opacity=".8"/><path fill="#687051" d="M130.615 130.008l-19.384-6.475c-1.018 6.107-9.548 15.315-9.693 14.569.145.746-10.738-8.466-12.923-14.569l-.998.077-.413.032c-4.167.321-17.18 6.067-20.213 6.872-4.525 1.2-9.345 3.111-10.377 7.588-1.878 8.15-6.847 23.03-2.18 19.424 6.293-4.325 6.798 1.14 8.139 2.27h5.042l1.616 31.722H129v-29.136l19.385-1.619c0-.122-6.031-13.463-9.693-25.899-1.708-3.273-4.78-4.844-8.077-4.856z" opacity=".8"/><path fill="#3D3544" d="M78.923 167.238l17.77 1.619 1.615-11.331-17.77-1.619z" opacity=".8"/><path fill="#DDDDDC" d="M88.615 155.907H87v3.238h1.615z"/><path fill="#E0684B" d="M104.666 122.137c-5.226.4-8.781-.58-11.073-1.813-1.572-1.72-5.486-4.846-7.357-9.354-2.02-5.695-1.802-5.757-2.86-11.676-1.46-14.33-5.217-33.111 14.766-35.69 19.176-2.217 19.83 11.85 19.443 25.888-.548 13.665-.994 30.953-12.919 32.645z" opacity=".8"/><path fill="#3D3544" d="M117.76 87.612c-2.599 1.08-3.723-4.536-3.283-3.266-3.735.612-14.553-2.504-14.222-2.178-1.601.22-7.186 3.867-8.752 5.444-.972.493-1.643.079-3.329 0 .188 4.335 2.57 2.093.71 5.641-1.159 2.012.722 5.459.541 7.43-1.147 2.733 3.432 17.717 2.131 21.033-.335 3.558-3.927 10.954-5.959 10.53-1.34.349-8.154 11.353-8.752 1.088-.203-6.33-12.838 7.117-10.94 1.089 1.243-1.404-2.722-7.197 4.376-16.33 6.342-8.678-1.112-15.595 4.25-21.772 5.46-6.183 3.203-17.19 3.844-19.596 1.807-3.375 10.474-17.877 19.692-16.33.34.136 13.863-.877 19.692 9.235 2.57 2.83 2.056 14.563 0 17.982z" opacity=".8"/></g></g><text fill="#4A4A4A" font-family="Sandman_Fill" font-size="16" font-weight="400" letter-spacing="1.6" transform="translate(249 1)"><tspan x="79" y="264">Interve</tspan> <tspan x="125.08" y="264">w</tspan></text><text fill="#4A4A4A" font-family="Sandman_Fill" font-size="24" font-weight="400" letter-spacing="3" transform="translate(249 1)"><tspan x="49" y="237">Therapist</tspan> <tspan x="146.608" y="237">s</tspan></text><g><path fill="#E7E1D8" d="M574.15 15h27.177c40.884 0 75.19 30.826 79.545 71.478l2.131 19.892c4.453 41.56-25.629 78.861-67.189 83.314a75.682 75.682 0 0 1-14.574.15l-35.118-3.033c-44.02-3.801-76.622-42.567-72.82-86.586a80 80 0 0 1 .058-.651l1.145-12.098C498.39 46.386 532.885 15 574.149 15z"/><text fill="#4A4A4A" font-family="Sandman_Fill" font-size="24" font-weight="400" letter-spacing="3" transform="translate(493 15)"><tspan x="16" y="223">Existing Product</tspan> <tspan x="189.232" y="223">s</tspan></text><text fill="#D6988D" font-family="Sandman_Fill" font-size="108" font-weight="400" letter-spacing="4.5" transform="translate(493 15)"><tspan x="79" y="113">?</tspan></text></g></g></svg>