<svg xmlns="http://www.w3.org/2000/svg" width="700" height="191" viewBox="0 0 700 191"><g fill="none" fill-rule="evenodd"><path fill="#F1DAD5" d="M86.304 185c54.703 0 91.745-16.412 103.07-37.147 11.325-20.735 15.916-50.483 6.734-82.34-9.18-31.858-34.898-59.518-99.804-60.49C31.397 4.051 0 33.9 0 88.603 0 143.307 31.6 185 86.304 185z"/><text fill="#4A4A4A" font-family="Sandman_Fill" font-size="24" font-weight="400" letter-spacing="2.3" transform="translate(0 5)"><tspan x="37" y="93">Mindfulnes</tspan> <tspan x="138.792" y="93">s</tspan></text><path fill="#AAAEA0" d="M348.11 189.757c45.614.18 123.195-17.559 104.73-114.442-7.903-41.47-28.493-74.822-108.32-74.31C264.693 1.519 240 51.03 240 110.4c0 59.371 62.497 79.178 108.11 79.358z"/><text fill="#4A4A4A" font-family="Sandman_Fill" font-size="24" font-weight="400" letter-spacing="2.3" transform="translate(240 1)"><tspan x="58.142" y="83">Cognitive</tspan> <tspan x="36.14" y="110">Restructurin</tspan> <tspan x="157.532" y="110">g</tspan></text><path fill="#EAE0D0" d="M585.52 190.991c59.37 0 88.72-17.813 101.011-40.316 12.291-22.504 17.274-54.79 7.31-89.366C683.875 26.733 643.306 0 585.52 0 526.15 0 481 40.023 481 99.394c0 59.37 45.15 91.597 104.52 91.597z"/><text fill="#4A4A4A" font-family="Sandman_Fill" font-size="24" font-weight="400" letter-spacing="2.3" transform="translate(481)"><tspan x="68" y="98">Self Car</tspan> <tspan x="152.256" y="98">e</tspan></text></g></svg>