<svg xmlns="http://www.w3.org/2000/svg" width="645" height="222" viewBox="0 0 645 222"><g fill="none" fill-rule="evenodd"><text fill="#687051" font-family="Sandman_Fill" font-size="18" font-weight="400" letter-spacing=".75" transform="translate(-1 -4)"><tspan x="45.256" y="136.541">Higher </tspan> <tspan x="28.552" y="157.541">Engagement</tspan></text><text fill="#CE7834" font-family="Sandman_Fill" font-size="18" font-weight="400" letter-spacing=".75" transform="translate(-1 -4)"><tspan x="561.438" y="12">Better </tspan> <tspan x="516.465" y="33">Depression Outcomes</tspan></text><path fill="#9A9794" d="M526.853 172.016l.275-21.045 10.069-42.602.13-53.103c34.553 7.138 67.249.84 101.23.353l4.373 52.348.104 42.93-.217 20.985-3.557 25.658-3.041 23.59h-101.81l1.244-23.578-8.8-25.536z"/><path fill="#B1B5A6" d="M568.984 47.27l35.272 3.868 33.126-2.08 1.69 8.32c-33.982.365-66.676 5.082-101.23-.27l.035-5.86 31.107-3.978z"/><path fill="#9A9794" d="M336.299 192.479l-1.463-41.059 4.864-18.096a18.377 18.377 0 0 0 3.724-1.542c13.313-6.241 26.625-2.679 39.937-.004 18.637 2.675 37.274 3.565 55.91 0 10.863-2.911 19.955-7.006 30.648-7.446l1.93 27.07-10.843 40.991-1.72 14.114 2.312 15.402H340.013l3.923-15.412-7.637-14.018z"/><path fill="#B1B5A6" d="M373.087 113.706l31.064 8.721 31.059-3.578 34.173-2.05.536 7.53c-10.693.44-19.785 4.535-30.648 7.445-18.636 3.567-37.273 2.675-55.91 0-13.312-2.674-26.624-6.24-39.937 0-1.118.624-2.378 1.139-3.724 1.538l3.338-12.408 30.05-7.198z"/><path fill="#9A9794" d="M160.326 197.508l-3.143-19.31 1.588-21.411c20.578 1.098 41.062-1.313 60.891 5.075 7.088 2.968 15.062 3.707 21.264 1.481 11.5-4.495 24.328-4.544 36.76-4.476l-1.135 19.317 3.36 19.296-1.607 23.845H160.29l.035-23.817z"/><path fill="#B1B5A6" d="M188.776 149.757l29.904.728 29.899 2.722 29.884-1.648-.435 8.88c-12.432-.081-25.26-.022-36.76 5.383-6.202 2.677-14.176 1.785-21.264-1.784-19.829-7.682-40.313-4.788-60.89-6.11l.358-5.816 29.304-2.355z"/><path fill="#9A9794" d="M5.175 201.585l-2.417-17.704c.876.507 1.695 1.037 2.417 1.618 1.786.615 3.571-1.85 6.25-1.235 9.821 3.695 20.536 0 30.357-.616 16.964-1.232 34.821-3.08 50.893-.616 8.036 1.231 17.857-1.233 25.893-3.08.805-.278 1.798-.3 2.883-.247l-1.878 5.794-2.25 16.086V220.3H.423l4.75-18.715z"/><path fill="#B1B5A6" d="M117.974 179.814c-8.035 2.65-17.857 6.183-25.892 4.416-16.072-3.533-33.929-.883-50.893.883-9.822.884-20.536 6.183-30.357.884-2.679-.884-4.465 2.65-6.25 1.766-.722-.832-1.541-1.598-2.417-2.324l-.523-3.449 27.272-4.03 30.582-6.15 30.578.705 30.993 6.032-.209.913c-1.085-.076-2.078-.044-2.884.354z"/><g><path fill="#464646" d="M286.819 59.41l-.277-.195s1.26-6.35 4.601-17.898c1.014-3.52 2.26-7.152 3.433-11.154.537-1.814.957-3.834 1.512-5.72.409-1.39 1.07-2.767 1.496-4.192.947-3.196 1.684-6.497 2.672-9.789.153-.493.539-1.165.689-1.663.394-1.294.46-2.38.976-3.605.205-.479.474-1.359.667-1.778.245-.527-.066-2.8.324-2.984 1.092-.512 1.495-.013.935 1.851-.427 1.454-.74 2.992-1.214 4.562-.211.703-.565 1.41-.785 2.13-1.209 4.017-2.387 8.375-3.72 12.75-.37 1.233-.885 2.43-1.263 3.666-.53 1.745-1.076 3.49-1.595 5.215-1.169 3.82-2.507 7.468-3.594 10.98-3.795 12.31-4.856 17.825-4.857 17.825z" opacity=".8"/><path fill="#2A5678" d="M320.972 30.3l-.591 4.361s-15.919-6.93-14.022-11.682c.385-3.688 14.613 7.322 14.613 7.322z" opacity=".9"/><path fill="#E66B52" d="M319.431 16.154l.66-.31 1.024 1.633-.659.3z" opacity=".8"/><path fill="#EB8873" d="M320.38 34.661c.566.007 2.368-17.45 2.368-17.45l-1.758.076s-4.149 13.637-3.973 15.762"/><path fill="#E66B52" d="M320.908 18.795l2.03-1.742-.969-1.946-2.348-.11z" opacity=".8"/><path fill="#8B572A" d="M330.76 67.667c.078.487.543 1.786.543 1.786.844.573 5.84-2 5.84-2s-.143-.3-.277-.456c-.52-.555-2.815.259-2.975.148a40.601 40.601 0 0 0-.896-.546l-2.234 1.068z" opacity=".8"/><path fill="#4A4A4A" d="M332.787 65.982l-1.442 2.928s-.163.387-15.221-12.056c-1.431-1.18-.657-5.81.564-4.848 6.95 5.515 16.099 13.976 16.099 13.976z" opacity=".9"/><path fill="#4A4A4A" d="M317.784 52.182l-.172 3.906-20.076-.083s-.465-5.234.663-5.51c6.356-1.587 18.622.93 18.622.93l.963.757z" opacity=".9"/><path fill="#4A4A4A" d="M295.07 56.744l7.52-.479 1.207-5.217-7.973-3.384z" opacity=".8"/><path fill="#8B572A" d="M274.404 80.574c-.365-.34-1.272-.427-1.272-.427-1.018.064-2.635 5.532-2.635 5.532s.29.157.485.19c.76.107 2.704-2.71 2.902-2.72.252-.019 1.185-.318 1.185-.318l-.665-2.257z" opacity=".8"/><path fill="#4A4A4A" d="M275.068 82.833l-1.937-2.686s1.927-.89 14.132-9.346c1.508-1.09 5.803.818 4.559 1.758-7.11 5.332-16.754 10.274-16.754 10.274z" opacity=".9"/><path fill="#4A4A4A" d="M290.943 73.341l-3.923-1.293 9.751-20.029s4.765 2.222 4.443 3.335c-1.838 6.287-10.27 17.987-10.27 17.987z" opacity=".9"/><path fill="#434343" d="M299.872 51.449s-5.354.382-6.9-1.156c-1.248-1.249-1.763-5.776-1.763-5.776l10.044 1.56-1.381 5.372z"/><path fill="#9B9B9B" d="M301.254 46.077l-10.132-.952s3.064-21.308 7.553-25.026c5.094-4.205 6.457 3.016 6.457 3.016l-3.878 22.962z" opacity=".8"/><path fill="#E66B52" d="M303.39 25.752l4.605.731 1.561-4.009-3.724-1.423z" opacity=".8"/><path fill="#2A5678" d="M309.351 23.008c-.428 1.209-1.76 1.676-1.76 1.676s-2.103-1.57-2.164-2.848c0 0-3.697 1.476-4.352 2.317-2.513 3.216-2.723 8.508-4.684 15.666-1.962 7.149-1.513 11.742-1.513 11.742l8.7.563s6.04-19.64 6.047-28.4c-.04-.977-.274-.716-.274-.716z" opacity=".9"/><path fill="#E66B51" d="M307.75 8.774c4.702-.427 4.539 5.656 4.838 8.991.04 1.073-.232 2.665-.425 3.973-.201 1.347-1.517.93-2.629 1.028-4.418 1.273-4.801-2.55-5.651-5.921-.819-3.247-1.04-7.626 3.867-8.071z" opacity=".8"/><path fill="#444" d="M312.312 12.673c.296-.165.158-4.792-6.205-4.069-2.09.432-2.968 2.517-3.12 4.454-.092 1.198.297 2.277.077 3.481-.215 1.212-.712 2.37-.706 3.609-.01.756.514 1.608 1.167 2.01.762.47 1.594.757 2.513.92.663.121 2.476.74 3.024.15-.915-.927-1.824-2.683-1.976-4.01-.102-.95.077-1.798-.254-2.721-.173-.487-.662-1.826-.211-2.253.188-.18.655-.029.876-.277.09-.093.365-.693.09-.758.216.05 1.813.6 2.002.726 0 0 .979-.206 1.887-.213.562-.007 1.001-.403.836-1.05"/><path fill="#DDD" d="M295.42 42.178c-.036 0-.078-.01-.11-.012l.067-1.419c.304.008.815-.274 1.228-.507.233-.123.454-.246.67-.344.913-.4 1.79-.824 2.493-1.476 2.323-2.202 3.893-5.29 4.316-8.477l.063-.53c-.002-.987.247-2.274-.376-3.476-.628-1.203-2.511-2.29-3.213-2.205l1.237-.598c1.14.632 1.974.636 3.34 2.362 1.443 2.68-.423 11.117-4.389 13.964-.856.807-1.897 1.308-2.89 1.745-.158.066-.349.178-.549.288-.571.313-1.211.667-1.886.685z"/><path fill="#EB8873" d="M285.347 26.093L276.2 40.73l1.288.649s9.485-10.838 10.321-12.804"/><path fill="#2A5678" d="M285.24 26.085l1.494 4.15s17.12-.506 16.556-3.753c-.455-2.637-18.05-.397-18.05-.397z" opacity=".9"/><path fill="#E66B52" d="M278.006 42.965l-.6.04-.125-1.872.606-.045z" opacity=".8"/><path fill="#E66B52" d="M277.954 41.282l-1.565-.905-2.548 2.597 1.107 1.937z" opacity=".8"/></g></g></svg>