<?xml version="1.0" encoding="UTF-8" standalone="no"?>
<svg width="47px" height="75px" viewBox="0 0 47 75" version="1.1" xmlns="http://www.w3.org/2000/svg" xmlns:xlink="http://www.w3.org/1999/xlink">
    <!-- Generator: Sketch 46.2 (44496) - http://www.bohemiancoding.com/sketch -->
    <title>Combined Shape Copy</title>
    <desc>Created with Sketch.</desc>
    <defs></defs>
    <g id="NW-project" stroke="none" stroke-width="1" fill="none" fill-rule="evenodd">
        <g id="Artboard-Copy-11" transform="translate(-57.000000, -9222.000000)" fill="#B34332">
            <g id="Group-4" transform="translate(0.000000, 8898.000000)">
                <g id="Group" transform="translate(57.000000, 190.000000)">
                    <path d="M10.9766594,144.976659 L24.2266594,144.976659 L24.2266594,158.226659 L10.9766594,158.226659 L10.9766594,144.976659 Z M10.9766594,158.226659 L24.2266594,158.226659 L24.2266594,171.476659 L10.9766594,171.476659 L10.9766594,158.226659 Z M10.9766594,171.476659 L24.2266594,171.476659 L24.2266594,184.726659 L10.9766594,184.726659 L10.9766594,171.476659 Z M10.9766594,184.726659 L24.2266594,184.726659 L24.2266594,197.976659 L10.9766594,197.976659 L10.9766594,184.726659 Z M24.2266594,158.226659 L37.4766594,158.226659 L37.4766594,171.476659 L24.2266594,171.476659 L24.2266594,158.226659 Z M24.2266594,171.476659 L37.4766594,171.476659 L37.4766594,184.726659 L24.2266594,184.726659 L24.2266594,171.476659 Z M24.2266594,184.726659 L37.4766594,184.726659 L37.4766594,197.976659 L24.2266594,197.976659 L24.2266594,184.726659 Z M37.4766594,171.476659 L50.7266594,171.476659 L50.7266594,184.726659 L37.4766594,184.726659 L37.4766594,171.476659 Z M37.4766594,184.726659 L50.7266594,184.726659 L50.7266594,197.976659 L37.4766594,197.976659 L37.4766594,184.726659 Z M50.7266594,184.726659 L63.9766594,184.726659 L63.9766594,197.976659 L50.7266594,197.976659 L50.7266594,184.726659 Z" id="Combined-Shape-Copy" transform="translate(37.476659, 171.476659) scale(-1, 1) rotate(-135.000000) translate(-37.476659, -171.476659) "></path>
                </g>
            </g>
        </g>
    </g>
</svg>