<svg xmlns="http://www.w3.org/2000/svg" width="47" height="75" viewBox="0 0 47 75"><path fill="#214A6A" fill-rule="evenodd" d="M9.5 74.977l-9.37-9.37 9.37-9.369 9.37 9.37-9.37 9.369zm9.37-9.37L9.5 56.238l9.37-9.369 9.368 9.37-9.369 9.368zm9.368-9.369L18.87 46.87l9.37-9.369 9.368 9.37-9.369 9.368zm9.37-9.369l-9.37-9.369 9.37-9.37 9.369 9.37-9.37 9.37zM9.5 56.24L.13 46.87 9.5 37.5l9.37 9.37-9.37 9.368zm9.37-9.37L9.5 37.5l9.37-9.37 9.368 9.37-9.369 9.37zm9.368-9.369l-9.369-9.37 9.37-9.368 9.368 9.369-9.369 9.369zM9.5 37.5L.13 28.13l9.37-9.368 9.37 9.369L9.5 37.5zm9.37-9.37L9.5 18.763l9.37-9.37 9.368 9.37-9.369 9.369zM9.5 18.763L.13 9.392 9.5.024l9.37 9.37-9.37 9.369z"/></svg>