<svg xmlns="http://www.w3.org/2000/svg" width="20" height="24" viewBox="0 0 20 24"><g fill="none" fill-rule="evenodd" stroke-linecap="round" stroke-linejoin="round"><path stroke="#EAE0D0" d="M19.17 23.36c-.537-2.779-.804-4.692-.802-5.737.005-2.475-.384-4.094-.409-4.856-.059-1.87-.848-4.811-1.016-5.765-.168-.953-1.146-1.082-1.64-.995-.496.087-.717 2.251-.356 3.643s.467 2.23.117 2.254c-.35.023-2.904-4.647-3.23-5.618-.325-.971-1.24-3.517-2.695-3.28-.806.132-.824.667-.295 2.096.488 1.32 1.44 3 1.452 3.072.027.15 1.198 2.753.866 2.889-.333.135-2.213-3.762-2.555-4.283C8.265 6.26 7.334 3.7 6.7 3.127c-.635-.572-1.91.161-1.666 1.134.244.973 1.925 3.75 2.285 4.773.36 1.024 1.161 2.173.939 2.376-.223.204-2.208-3.323-2.739-4.172-.53-.848-.75-1.532-1.307-1.871-.557-.339-1.616.392-1.218 1.373.397.98 2.305 4.555 2.888 5.415.583.86.97 1.623.763 1.667-.207.043-.44.164-1.034-.812-.594-.976-1.025-2.562-1.562-3.282-.537-.72-1.427-.602-1.558.33-.132.933.306 1.933 1.573 4.843s1.86 4.107 2.5 5.226c.428.746 1.6 1.823 3.517 3.232l9.09.001z"/><path stroke="#D6988D" stroke-width=".8" d="M11.462 1.73c.404.183.927.596 1.578 1.554.434.64.674 1.227.722 1.764M1.886 16.568c-.087.454.369 1.68.506 2.211.092.354.446.862 1.062 1.523M.501 18.768c-.112.485.578 1.823 1.299 2.07M13.662 1.353c.479.138 1.315 1.39 1.181 2.14"/></g></svg>