<svg xmlns="http://www.w3.org/2000/svg" width="349" height="60" viewBox="0 0 349 60"><g fill="#EAE0D0" fill-rule="evenodd"><path d="M45.08 26.629l8.954-.313.96 27.498-8.954.313zM282.663 8.187h9.916v50.53h-9.916zM.928 15.982l9.878-.864 3.792 43.346-9.878.864zM26.84.862l9.879-.865 4.562 52.148-9.878.864z"/><path d="M7.32 29.711l29.647-2.593.67 7.65L7.988 37.36zM96.34 7.453l8.893 1.092-4.913 40.013-8.893-1.092z"/><path d="M74.845-.244l48.026 5.897-1.092 8.891-48.025-5.897zm81.595 12.96h23.04v8.958h-23.04zm70.528-3.029l19.89-2.09.937 8.909-16.867 1.773.602 5.727 14.639-1.539.936 8.91-14.639 1.538.602 5.728 16.867-1.773.937 8.91-19.89 2.09-5.888.619-4.014-38.183 5.888-.619zM159.32 27.433h19.52v8.958h-19.52zm-1.28 14.718h23.04v8.958h-23.04z"/><path d="M155.16 12.716h8.96v38.393h-8.96zm-41.403 3.655l9.017.266 2.849 40.554-8.89.778zM134.52 2.938l8.927-.78 4.81 54.987-8.926.78zm174.504 21.09l8.948.47-1.732 33.037-8.948-.47zm27.77.205l8.938-.625 2.338 33.425-8.938.625zM188.603.558l8.959.156-.963 55.189-8.959-.156z"/><path d="M191.001 33.02l7.249-5.267 16.347 22.5-7.25 5.266zm-73.121-.754l25.27-2.21.668 7.649-25.27 2.21z"/><path d="M197.075.912c15.182-.539 21.849 5.357 20 17.687-1.85 12.33-9.421 17.238-22.715 14.723l2.715-32.41zm.626 6.046v19.85c7.939.149 11.908-3.203 11.908-10.056 0-6.852-3.97-10.117-11.908-9.794zm64.734 44.772a6.08 6.08 0 1 1 6.896-9.352l.034-.045c2.581 4.272 2.651 8.353.21 12.242-3.66 5.833-9.808 4.236-9.767 3.955.04-.281 1.855-.243 3.227-1.967.705-.886.87-2.482.583-3.723-.088-.376-.493-.731-1.216-1.064l.033-.045zm39.549-41.323a4.643 4.643 0 0 1-1.49-9.03 4.635 4.635 0 0 1 4.144.566l.013-.042c2.924 2.443 3.99 5.37 3.194 8.784-1.192 5.12-6.027 5.496-6.067 5.283-.041-.213 1.279-.636 1.84-2.222.29-.815.011-2.008-.504-2.832-.157-.25-.538-.406-1.142-.466l.012-.041zm15.359 13.758l10.428 10.518 9.387-10.517.737 10.005-7.426 10.123h-4.06L314.818 34.17l2.526-10.004z"/></g></svg>