<svg xmlns="http://www.w3.org/2000/svg" width="661" height="169" viewBox="0 0 661 169"><g fill="#EAE0D0" fill-rule="evenodd"><path d="M646.334 152.25a7.657 7.657 0 0 1 1.05-8.745c2.813-3.134 7.616-3.398 10.726-.588 2.64 2.384 3.213 6.215 1.607 9.236-1.599 4.473-4.678 7.376-9.24 8.71-8.228 2.405-12.534-4.209-12.262-4.438.272-.23 1.905 1.319 4.603.85 1.387-.242 2.87-1.598 3.642-2.997.235-.425.16-1.094-.226-2.008l.1-.02zm-359.968-33.33c-29.817 0-37.792-19.38-37.792-43.287s9.551-43.287 37.792-43.287c28.24 0 37.792 19.38 37.792 43.287 0 23.906-7.976 43.287-37.792 43.287zm.801-21.916c14.164 0 17.952-9.206 17.952-20.562 0-11.356-4.537-20.562-17.952-20.562-13.415 0-17.952 9.206-17.952 20.562 0 11.356 3.789 20.562 17.952 20.562zM.812 27.819l18.355-15.955 114.549 132.323-22.894 10.183z"/><path d="M31.731 167.147l-24.319-6.432L107.392.17l20.625 12.888zM129.44 57.265l24.188-2.542 8.193 77.956-24.187 2.543zm58.945 71.705L185 104.886 234 98l3.386 24.083z"/><path d="M187.416 29.504l21.038 4.344-24.598 132.705L162 165.521z"/><path d="M190 39.603l17.186-10.099 59.868 127.889-19.128 4.98zm135.816-6.98l21.061-12.16 40.25 69.714-21.062 12.16zm277.908 44.746l23.552-.001 1.393 68.835-24.102.001z"/><path d="M407.697 22.992l19.676 14.295-47.316 65.124-19.675-14.295zm215.588 12.109l-3.038 21.27-96.213-13.306 3.037-21.27z"/><path d="M362.355 90.726L386.642 92l-3.315 63.262-24.287-1.273zM187.58 27.368l18.24-.864 4.21 11.575L186 37.3z"/><path fill-rule="nonzero" d="M447.284 75.886l8.142 57.938c.765 5.442-2.03 10.992-8.91 11.959l-8.976 1.261c-6.88.967-11.096-3.597-11.861-9.039l-8.143-57.938L397 82.953l8.143 57.938c2.542 18.091 18.625 30.128 35.434 27.765l8.977-1.261c16.81-2.363 28.951-18.366 26.409-36.457L467.82 73l-20.536 2.886zm83.359 63.697a1.25 1.25 0 0 1-.223-.156c-.406-.338-.867-.946-1.293-1.811-1.15-2.334-1.647-5.695-1.198-9.294l-17.298-2.09c-.846 6.776.143 13.466 2.816 18.894 3.107 6.308 8.39 10.705 15.027 11.507l17.231 2.082c6.637.802 12.844-2.206 17.41-7.588 3.927-4.63 6.532-10.886 7.377-17.662l11.172-89.536-17.299-2.09-11.171 89.535c-.45 3.6-1.757 6.742-3.447 8.734-.626.737-1.223 1.218-1.7 1.45a1.23 1.23 0 0 1-.255.097c-1.876 1.333-4.835 1.788-8.874 1.366-4.04-.421-6.798-1.567-8.275-3.438z"/></g></svg>