<svg xmlns="http://www.w3.org/2000/svg" width="648" height="73" viewBox="0 0 648 73"><g fill="#EAE0D0" fill-rule="evenodd"><path d="M205.726 34.111l7.264-2.568 4.417 38.864c-.796.094-1.392.151-1.79.17-.397.02-2.251.086-5.562.197v-.196l-4.329-36.467zM186.2 61.162c-12.497 0-15.84-9.236-15.84-20.63 0-11.392 4.003-20.628 15.84-20.628s15.84 9.236 15.84 20.629-3.343 20.63-15.84 20.63zm0-10.938c5.671 0 7.188-4.192 7.188-9.362S191.572 31.5 186.2 31.5s-7.188 4.191-7.188 9.362c0 5.17 1.517 9.362 7.188 9.362zm130.319-27.739l9.537-.666 2.812 40.214-9.537.667zm212.88 1.535h9.464v40.313h-9.464zm18.507-13.796l8.955.29-1.929 51.063-8.954-.29zm22.984 1.388l8.955.29-3.036 48.1-8.955-.29z"/><path d="M549.553 14.928l7.317-4.262 19.522 46.438-8.521 2.56zm-251.049 1.791h42.006v8.958h-42.006zm123.419 6.224l22.756 3.604-1.401 8.848-22.757-3.604zm168.405 10.393l19.89-2.09.937 8.908-16.867 1.773.602 5.728 14.639-1.539.936 8.91-14.639 1.538.602 5.727 16.867-1.772.937 8.909-19.89 2.09-5.888.62-4.014-38.183 5.888-.62zm-167.148 4.6l19.28 3.054-1.4 8.847-19.28-3.053zm-6.458 13.949l22.756 3.604-1.401 8.848-22.757-3.604z"/><path d="M421.258 22.946l8.85 1.402-6.006 37.92-8.85-1.401zm-284.033-2.364l8.273-.541v51.353l-9.57-.146zM627.574 9.726c13.505.377 19.28 6.385 17.326 18.024-1.158 6.898-4.076 11.43-8.753 13.593l10.94 16.848-7.514 4.88-12.592-19.39-.366 20.989-8.959-.156.728-55.033h9.194l-.004.245zm-1.841 6.047l-.347 19.846c7.936.288 11.963-2.994 12.083-9.846.12-6.851-3.793-10.185-11.736-10zM89.024 2.304l11.423-1.131 4.153 68.735H92.264z"/><path d="M140.465 51.401l7.744-4.899 17.466 20.932-7.744 4.898zm71.717-19.653c15.79-4.303 24.117.94 24.983 15.73.866 14.789-5.903 22.694-20.408 22.988l-4.575-38.718zm2.387 8.705l3.693 19.836c8.726-.482 12.355-4.478 10.887-11.987-1.469-7.51-6.329-10.126-14.58-7.85z"/><path d="M145.154 20.087c16.736-.936 24.116 4.761 22.14 17.091-1.975 12.33-10.064 17.238-24.265 14.723l2.125-31.814zm1.444 7.813v17.486c8.718-1.123 12.959-4.474 12.721-10.055-.237-5.58-4.477-8.057-12.721-7.43zM98.215 1.362c15.86-1.221 24.446.276 29.753 5.68 2.96 3.015 5.153 7.23 4.149 12.815-.778 4.326-2.258 7.725-4.15 10.466-4.928 7.142-13.89 9.323-29.752 8.1V1.362zm3.717 10.46l1.646 17.621c11.466.506 16.88-2.656 16.242-9.487-.638-6.832-6.6-9.543-17.888-8.133zm206.57 30.922c-2.813-1.392-5.86-1.88-9.142-1.467-4.922.62-5.998 2.08-6.399 8.685-.4 6.604 1.832 8.705 4.013 9.418 1.454.475 5.296.736 11.528.784v5.67c-1.327 2.043-4.81 2.553-10.448 1.532-8.457-1.533-12.577-4.981-13.16-9.748-.584-4.766-.981-17.775 4.046-22.505s13.204-2.663 14.8-2.335c1.064.219 2.947 1.18 5.648 2.883l-.886 7.083zm162.052.016l3.06-4.843c-3.895-3.88-8.179-5.71-12.852-5.492-7.01.329-9.803 5.54-10.836 8.006-1.034 2.465-1.299 9.866 4.23 12.271 3.697 1.609 6.458 1.615 8.812 2.346 1.166.362 2.259.662 3.264 1.896.947 1.164.714 2.127.533 3.073-.399 2.083-2.61 3.573-6.003 3.345-3.289-.221-6.157-1.603-8.607-4.145l-5.375 5.623c3.22 4.01 7.881 6.075 13.982 6.196 9.15.182 11.303-1.467 13.943-4.946 1.642-2.164 1.947-6.381 1.238-9.777-.431-2.066-1.928-3.388-3-4.154-2.838-2.023-6.884-2.835-10.598-3.715-3.714-.88-4.243-4.149-2.998-6.122.612-.97 2.602-1.872 6.123-1.411.835.11 2.53.726 5.084 1.85zm41.026-6.865v-8.893c-5.331-2.98-11.153-3.704-17.466-2.174-9.47 2.294-13.47 9.873-13.861 19.878-.392 10.006-.001 24.658 11.514 26.27 7.677 1.075 14.086-.227 19.227-3.905v4.586h7.846l.78-28.222-19.75 1.862v8.436l11.71-.917v2.75c-3.615 3.768-7.243 5.831-10.886 6.19-5.464.537-9.983.683-11.155-6.19-1.173-6.874-1.182-16.216 4.575-19.67 3.838-2.304 9.66-2.304 17.466 0zM375.8 16.266h13.51c2.691 0 8.136-.444 15.652 6.893 7.517 7.337 7.852 23.316 4.85 31.588-3 8.271-7.6 10.935-10.152 12.2-2.554 1.265-6.852 2.273-9.352 2.273l-14.508-.332V16.266zm9.807 42.184h3.846c1.71 0 3.3-.275 4.772-.823 1.472-.549 2.746-1.459 3.822-2.73 1.076-1.272 1.923-2.942 2.54-5.011.618-2.07.926-4.6.926-7.592 0-2.593-.308-4.849-.926-6.769-.617-1.92-1.448-3.503-2.492-4.75-1.045-1.246-2.272-2.18-3.68-2.804a10.853 10.853 0 0 0-4.44-.935h-4.368V58.45zM18.958 17.589h-.003l1.344-3.51 8.18 1.116 1.364 4.253L47.78 67.029l-8.919.253-5.976-15.687-17.857-.175L9.77 63.683 0 61.583l18.957-43.994zm9.68 22.855L24.45 29.45l-4.677 10.908 8.865.087z"/><path fill-rule="nonzero" d="M270.45 27.03l-2.524 28.844c-.237 2.709-2.233 5.071-5.716 4.766l-4.547-.397c-3.483-.305-5.038-2.978-4.801-5.687l2.523-28.843-10.4-.91-2.523 28.843c-.788 9.006 5.748 16.611 14.26 17.356l4.546.397c8.512.745 16.27-5.609 17.057-14.615l2.524-28.843-10.4-.91z"/></g></svg>